<svg height="413pt" viewBox="0 0 413 413.53291" width="413pt" xmlns="http://www.w3.org/2000/svg"><path d="m243.15625 294.566406c-5.484375 2.265625-11.167969 4.003906-16.976562 5.199219-1.957032.398437-3.484376 1.925781-3.890626 3.878906l-7.824218 37.660157c-2.308594 11.386718.429687 23.214843 7.511718 32.429687 4.855469 6.492187 4.960938 15.378906.253907 21.984375-4.703125 6.601562-13.136719 9.40625-20.859375 6.933594-7.722656-2.46875-12.964844-9.652344-12.960938-17.757813-.007812-3.910156 1.230469-7.71875 3.542969-10.871093 7.132813-9.304688 9.949219-21.214844 7.730469-32.730469l-7.808594-37.679688c-.40625-1.953125-1.9375-3.480469-3.890625-3.878906-11.808594-2.410156-23.042969-7.070313-33.09375-13.722656-1.667969-1.097657-3.828125-1.097657-5.496094 0l-32.183593 21.113281c-9.675782 6.421875-16.097657 16.726562-17.601563 28.242188-1.152344 8.027343-7.363281 14.386718-15.359375 15.730468-8 1.34375-15.945312-2.636718-19.660156-9.847656-3.714844-7.207031-2.339844-15.988281 3.398437-21.722656 2.753907-2.773438 6.324219-4.597656 10.1875-5.199219 11.625-1.53125 22.039063-7.964844 28.613281-17.675781l21.085938-32.164063c1.097656-1.667969 1.097656-3.828125 0-5.496093-6.65625-10.042969-11.316406-21.273438-13.726562-33.074219-.402344-1.957031-1.925782-3.488281-3.882813-3.894531l-37.65625-7.824219c-11.386719-2.3125-23.214844.429687-32.425781 7.511719-7.652344 5.777343-18.4375 4.8125-24.945313-2.230469-6.503906-7.042969-6.617187-17.871094-.253906-25.042969 6.359375-7.175781 17.121094-8.359375 24.890625-2.746094 9.304688 7.140625 21.21875 9.953125 32.730469 7.734375l37.667969-7.8125c1.957031-.40625 3.480468-1.9375 3.882812-3.890625 2.40625-11.808594 7.066406-23.042968 13.71875-33.09375 1.097656-1.667968 1.097656-3.828125 0-5.496094l-21.113281-32.183593c-6.421875-9.679688-16.722657-16.097657-28.242188-17.601563-8.027343-1.152344-14.386719-7.363281-15.730469-15.359375-1.34375-8 2.636719-15.945312 9.847657-19.660156 7.207031-3.714844 15.992187-2.339844 21.722656 3.398437 2.777344 2.75 4.597656 6.320313 5.199219 10.1875 1.535156 11.625 7.96875 22.039063 17.675781 28.609376l32.164063 21.089843c2.308593 1.515625 5.410156.871094 6.925781-1.441406 1.511719-2.308594.867187-5.410156-1.441407-6.921875l-32.175781-21.105469c-7.335937-5.035156-12.167969-12.960937-13.285156-21.789062-.917969-5.957031-3.722656-11.464844-8-15.714844-8.808594-8.855469-22.339844-10.980469-33.445313-5.257813-11.101562 5.722657-17.21875 17.980469-15.121093 30.292969 2.101562 12.3125 11.933593 21.847657 24.308593 23.570313 8.652344 1.117187 16.398438 5.933594 21.230469 13.199218l19.335938 29.480469c-5.832031 9.441407-10.113281 19.757813-12.679688 30.554688l-34.480469 7.164062c-8.742187 1.625-17.765624-.554687-24.800781-6-4.859375-3.5625-10.734375-5.472656-16.761719-5.460937-12.492187-.035156-23.570312 8.027344-27.378906 19.925781-3.804687 11.898437.53125 24.890625 10.722656 32.117187 10.191407 7.222657 23.890626 7.015626 33.855469-.519531 6.910157-5.320312 15.785157-7.394531 24.335938-5.683593l34.53125 7.132812c2.566406 10.796875 6.847656 21.113281 12.679687 30.550781l-19.328125 29.472657c-5.035156 7.332031-12.964843 12.167968-21.789062 13.285156-5.960938.917968-11.46875 3.722656-15.71875 8-8.851563 8.8125-10.980469 22.34375-5.257813 33.445312 5.726563 11.105469 17.980469 17.222656 30.292969 15.121094 12.316406-2.101562 21.851563-11.933594 23.570313-24.304688 1.117187-8.65625 5.933593-16.402343 13.199218-21.234374l29.480469-19.335938c9.441406 5.832031 19.757813 10.113281 30.554687 12.679688l7.164063 34.480468c1.628906 8.746094-.550781 17.769532-6 24.800782-3.558594 4.863281-5.472656 10.734374-5.457031 16.761718-.003906 7.609375 3.023437 14.90625 8.40625 20.28125 5.386718 5.375 12.6875 8.386719 20.296875 8.371094 2.0625 0 4.117187-.214844 6.136719-.640625 9.53125-2.089844 17.339843-8.894531 20.71875-18.046875 3.375-9.15625 1.855468-19.398438-4.035157-27.179688-5.328125-6.90625-7.402343-15.785156-5.683593-24.339843l7.113281-34.511719c5.308593-1.261719 10.507812-2.941406 15.554687-5.023438 2.550782-1.054687 3.765625-3.976562 2.710938-6.53125-1.050782-2.550781-3.976563-3.765624-6.527344-2.714843zm0 0"/><path d="m170.085938 119.441406c5.761718-2.445312 11.75-4.3125 17.882812-5.570312 1.953125-.398438 3.484375-1.925782 3.890625-3.878906l7.824219-37.65625c2.308594-11.386719-.433594-23.214844-7.511719-32.425782-4.859375-6.492187-4.960937-15.382812-.257813-21.984375 4.707032-6.605469 13.140626-9.410156 20.863282-6.9375 7.722656 2.472657 12.960937 9.652344 12.957031 17.761719.011719 3.90625-1.230469 7.710938-3.539063 10.863281-7.136718 9.304688-9.949218 21.21875-7.730468 32.730469l7.808594 37.667969c.410156 1.957031 1.9375 3.480469 3.894531 3.882812 11.808593 2.40625 23.039062 7.066407 33.085937 13.71875 1.667969 1.09375 3.828125 1.09375 5.496094 0l32.1875-21.113281c9.679688-6.421875 16.097656-16.726562 17.601562-28.242188 1.15625-8.027343 7.367188-14.386718 15.363282-15.730468s15.945312 2.636718 19.65625 9.847656c3.714844 7.207031 2.339844 15.992188-3.394532 21.722656-2.753906 2.777344-6.324218 4.597656-10.1875 5.199219-11.625 1.535156-22.039062 7.96875-28.613281 17.675781l-21.089843 32.160156c-1.09375 1.667969-1.09375 3.828126 0 5.496094 6.65625 10.042969 11.316406 21.273438 13.730468 33.078125.398438 1.957031 1.925782 3.488281 3.878906 3.894531l37.65625 7.824219c2.617188.539063 5.285157.804688 7.957032.800781 8.847656-.03125 17.445312-2.957031 24.472656-8.332031 2.195312-1.675781 2.621094-4.8125.949219-7.007812-1.671875-2.199219-4.808594-2.625-7.007813-.953125-6.90625 5.328125-15.78125 7.402344-24.335937 5.683594l-34.5-7.148438c-2.566407-10.796875-6.847657-21.113281-12.679688-30.554688l19.328125-29.472656c5.039063-7.332031 12.96875-12.164062 21.792969-13.285156 5.957031-.917969 11.464844-3.722656 15.714844-8 8.855469-8.8125 10.980469-22.34375 5.257812-33.445312-5.722656-11.101563-17.976562-17.21875-30.292969-15.121094-12.3125 2.101562-21.847656 11.933594-23.566406 24.308594-1.121094 8.652343-5.933594 16.398437-13.203125 21.230468l-29.484375 19.335938c-9.4375-5.832032-19.753906-10.113282-30.550781-12.679688l-7.164063-34.480468c-1.628906-8.742188.554688-17.765626 6-24.800782 3.5625-4.863281 5.476563-10.734375 5.460938-16.761718.035156-12.492188-8.027344-23.570313-19.925781-27.378907-11.898438-3.808593-24.890625.53125-32.117188 10.722657-7.222656 10.191406-7.015625 23.886718.519531 33.855468 5.328126 6.90625 7.398438 15.78125 5.683594 24.335938l-7.117187 34.535156c-5.660157 1.347656-11.195313 3.167969-16.550781 5.445312-2.457032 1.128907-3.570313 4.007813-2.511719 6.496094 1.054687 2.488282 3.902343 3.6875 6.417969 2.703125zm0 0"/><path d="m413.152344 200.636719c-2.421875-11.039063-11.113282-19.621094-22.179688-21.902344-2.710937-.539063-5.34375 1.21875-5.882812 3.925781-.539063 2.710938 1.222656 5.339844 3.929687 5.878906 9.355469 1.980469 15.699219 10.707032 14.703125 20.214844-.996094 9.507813-9.019531 16.726563-18.578125 16.71875-3.910156.011719-7.71875-1.230468-10.871093-3.539062-9.300782-7.140625-21.214844-9.953125-32.730469-7.734375l-37.667969 7.8125c-1.953125.40625-3.480469 1.9375-3.878906 3.894531-2.410156 11.804688-7.066406 23.039062-13.722656 33.085938-1.09375 1.667968-1.09375 3.828124 0 5.496093l21.113281 32.1875c6.425781 9.679688 16.726562 16.097657 28.246093 17.601563 8.023438 1.152344 14.386719 7.363281 15.726563 15.363281 1.34375 7.996094-2.636719 15.945313-9.84375 19.65625-7.210937 3.714844-15.992187 2.339844-21.722656-3.394531-2.777344-2.753906-4.601563-6.324219-5.203125-10.191406-1.53125-11.621094-7.964844-22.035157-17.675782-28.609376l-32.160156-21.089843c-2.308594-1.511719-5.410156-.867188-6.921875 1.441406-1.515625 2.308594-.871093 5.410156 1.4375 6.921875l32.179688 21.101562c7.332031 5.039063 12.164062 12.964844 13.28125 21.792969.921875 5.957031 3.722656 11.464844 8 15.714844 5.359375 5.382813 12.640625 8.40625 20.238281 8.402344 1.003906-.003907 2.011719-.054688 3.011719-.15625 9.949219-1.035157 18.644531-7.179688 22.933593-16.21875 4.289063-9.039063 3.550782-19.660157-1.941406-28.023438-4.519531-6.90625-11.820312-11.507812-20-12.601562-8.65625-1.121094-16.402344-5.933594-21.234375-13.203125l-19.335937-29.484375c5.835937-9.4375 10.113281-19.753907 12.679687-30.550781l34.480469-7.164063c8.746094-1.625 17.765625.558594 24.800781 6 4.863281 3.5625 10.738281 5.476563 16.765625 5.460937 8.683594-.007812 16.894532-3.949218 22.335938-10.71875 5.441406-6.765624 7.523437-15.636718 5.664062-24.117187zm0 0"/><path d="m194.40625 170.8125c-2.761719 0-5 2.238281-5 5 0 9.941406-8.058594 18-18 18s-18-8.058594-18-18 8.058594-18 18-18c2.761719 0 5-2.238281 5-5s-2.238281-5-5-5c-15.464844 0-28 12.535156-28 28s12.535156 28 28 28 28-12.535156 28-28c0-2.761719-2.238281-5-5-5zm0 0"/><path d="m258.738281 233.328125c0-2.761719-2.238281-5-5-5-6.769531 0-12.257812-5.488281-12.257812-12.257813 0-6.773437 5.488281-12.261718 12.257812-12.261718 6.773438 0 12.261719 5.488281 12.261719 12.261718 0 2.761719 2.238281 5 5 5s5-2.238281 5-5c0-12.296874-9.96875-22.261718-22.261719-22.261718s-22.257812 9.964844-22.257812 22.261718c0 12.292969 9.964843 22.257813 22.257812 22.257813 2.761719 0 5-2.238281 5-5zm0 0"/><path d="m177.109375 249.589844c-2.757813 0-5 2.238281-5 5 0 2.761718 2.242187 5 5 5 8.632813-.003906 15.625-7.003906 15.621094-15.632813-.003907-8.632812-7-15.625-15.628907-15.625-8.632812.003907-15.625 7-15.625 15.628907 0 2.761718 2.238282 5 5 5 2.761719 0 5-2.238282 5-5 0-3.109376 2.519532-5.628907 5.625-5.628907 3.109376 0 5.628907 2.519531 5.628907 5.628907 0 3.109374-2.519531 5.628906-5.628907 5.628906zm0 0"/><path d="m222.320312 129.90625c-.703124 2.667969.886719 5.402344 3.554688 6.105469 12.480469 3.320312 23.859375 9.878906 32.984375 19.011719 1.953125 1.953124 5.117187 1.953124 7.070313 0 1.953124-1.953126 1.953124-5.117188 0-7.070313-10.375-10.378906-23.308594-17.832031-37.496094-21.601563-2.667969-.699218-5.402344.886719-6.113282 3.554688zm0 0"/><path d="m207.074219 123.582031c-2.761719 0-5 2.238281-5 5s2.238281 5 5 5c1.378906 0 2.746093.035157 4.105469.109375h.28125c2.761718.078125 5.058593-2.101562 5.132812-4.863281.078125-2.761719-2.101562-5.058594-4.863281-5.136719-1.539063-.078125-3.089844-.109375-4.65625-.109375zm0 0"/></svg>