<svg height="413pt" viewBox="-2 0 413 413.9607" width="413pt" xmlns="http://www.w3.org/2000/svg"><path d="m383.472656 251.527344c-11.390625.019531-21.519531 7.242187-25.261718 18-16.253907-10.277344-35.023438-9.519532-46.894532-7.4375 21.363282-41.890625 16.503906-92.371094-12.464844-129.414063s-76.785156-53.929687-122.589843-43.292969c-7.28125-10.5625-17.925781-18.34375-30.195313-22.078124-13.792968-4.507813-17.308594-14-18.210937-18.546876 11.207031-8.273437 14.289062-23.710937 7.113281-35.652343-7.175781-11.941407-22.25-16.472657-34.820312-10.460938-12.566407 6.011719-18.503907 20.589844-13.710938 33.671875 4.792969 13.078125 18.742188 20.371094 32.21875 16.839844 3.410156 11.597656 12.632812 20.570312 24.320312 23.65625 9.03125 2.765625 17.046876 8.125 23.050782 15.417969-7.003906 2.28125-13.785156 5.199219-20.253906 8.71875-.121094.070312-.238282.125-.347657.199219-50.46875 27.566406-74.519531 86.882812-57.492187 141.808593-9.230469 15.199219-27.171875 11.910157-34.171875 9.871094-1.90625-13.65625-13.871094-23.632813-27.648438-23.046875-13.777343.585938-24.855469 11.539062-25.59375 25.308594-.738281 13.769531 9.101563 25.847656 22.738281 27.902344 13.632813 2.058593 26.597657-6.578126 29.953126-19.953126 4.082031 1.039063 8.273437 1.574219 12.484374 1.597657 9.839844.347656 19.371094-3.4375 26.289063-10.441407 4.085937 9.707032 9.425781 18.839844 15.878906 27.164063 1.070313 1.472656 2.859375 2.25 4.667969 2.027344 1.808594-.226563 3.351562-1.417969 4.027344-3.109375.675781-1.691406.375-3.621094-.78125-5.027344-7.699219-9.910156-13.652344-21.0625-17.601563-32.972656-.023437-.078125-.042969-.15625-.066406-.234375-16.015625-48.640625 3.320313-101.921875 46.796875-128.96875 2.953125 10.339843 10.542969 28.890625 27.765625 33.050781 6.453125 1.523438 11.667969 6.25 13.820313 12.519531 3.027343 8.066407 2.140624 17.082031-2.398438 24.402344-1.585938 2.261719-1.035156 5.382813 1.226562 6.964844 2.265626 1.582031 5.382813 1.035156 6.96875-1.230469 6.433594-10.042969 7.746094-22.53125 3.546876-33.691406-3.304688-9.375-11.152344-16.421875-20.824219-18.699219-13.464844-3.257813-19.199219-20.800781-21.109375-28.402344 48.371094-24.175781 107.125-9.976562 139.109375 33.625 31.984375 43.601563 27.890625 103.90625-9.695313 142.785157-37.585937 38.875-97.722656 45.003906-142.375 14.507812 6.3125-9.570312 10.171875-20.550781 11.234375-31.964844 18.277344-3.058594 33.582031-15.539062 40.257813-32.828125.714844-1.660156.476562-3.582031-.621094-5.019531-1.101562-1.433594-2.890625-2.167969-4.679688-1.910156-1.792968.257812-3.304687 1.460937-3.957031 3.148437-5.097656 13.519531-16.78125 23.46875-30.9375 26.351563-.289062-3.835938-.921875-7.636719-1.890625-11.359375-7.351562-28.175781 11.886719-59.789063 12.082032-60.105469 1.386718-2.34375.640624-5.367188-1.671876-6.796875-2.316406-1.433594-5.351562-.753906-6.828124 1.53125-.894532 1.4375-21.703126 35.523437-13.257813 67.898437 3.730469 15.425782.921875 31.714844-7.769531 45-2.355469-1.949218-4.660156-4-6.871094-6.140624-1.976562-1.929688-5.144531-1.890626-7.070312.085937-1.929688 1.976563-1.890626 5.144531.085937 7.074219 3.652344 3.542968 7.519531 6.855468 11.582031 9.917968l.023438.03125c.023437 0 .050781.023438.074218.046876 20.953126 15.855468 46.523438 24.414062 72.800782 24.359374.464844 0 .917968-.027343 1.378906-.035156-13.957031 21.078125-6.726562 38.375-2.574219 45.3125-5.785156 9.703125-4.855469 21.992188 2.324219 30.710938 7.183594 8.71875 19.066406 11.988281 29.695312 8.171875 10.632813-3.820313 17.71875-13.90625 17.707032-25.199219 0-2.761719-2.238282-5-5-5-2.761719 0-5 2.238281-5 5 .003906 8-5.644532 14.886719-13.492188 16.449219-7.84375 1.5625-15.703125-2.636719-18.765625-10.027344s-.476562-15.914063 6.171875-20.359375c6.652344-4.445312 15.519532-3.574219 21.175782 2.082031 1.953124 1.953125 5.121093 1.953125 7.074218 0s1.953125-5.121093-.003906-7.074219c-9.367188-9.390624-24.214844-10.46875-34.84375-2.53125-3.269531-6.90625-6.398438-21.035156 8.851562-38.402343 35.136719-4.335938 66.617188-23.828125 86.15625-53.351563 6.488282-1.929687 33.382813-8.535156 52.453126 6.84375 1.371093 14.386719 13.910156 25.085938 28.332031 24.171875 14.421875-.914062 25.511719-13.113281 25.054687-27.554687-.457031-14.445313-12.300781-25.914063-26.75-25.910156zm-288.292968-224.238282c0-9.257812 7.5-16.765624 16.761718-16.765624 9.257813-.003907 16.765625 7.5 16.765625 16.757812.003907 9.257812-7.5 16.765625-16.757812 16.769531-9.25-.019531-16.746094-7.511719-16.769531-16.761719zm-67.898438 246c-9.257812 0-16.765625-7.503906-16.765625-16.761718 0-9.257813 7.503906-16.765625 16.761719-16.765625 9.257812 0 16.765625 7.503906 16.765625 16.761719-.015625 9.25-7.511719 16.746093-16.761719 16.765624zm356.195312 21.765626c-9.257812 0-16.765624-7.507813-16.765624-16.765626 0-9.257812 7.507812-16.761718 16.765624-16.761718 9.257813 0 16.761719 7.503906 16.761719 16.761718-.019531 9.253907-7.515625 16.746094-16.765625 16.765626zm0 0"/><path d="m304.976562 123.589844c1.09375 0 2.160157-.359375 3.03125-1.023438 6.539063-4.210937 13.707032-7.355468 21.234376-9.316406l3.855468-1.261719c13.425782-4.472656 15.296875-18.527343 14.078125-28.613281 13.484375-3.023438 22.464844-15.800781 20.730469-29.511719-1.730469-13.710937-13.605469-23.855469-27.417969-23.429687-13.8125.429687-25.035156 11.289062-25.914062 25.078125-.882813 13.792969 8.867187 25.992187 22.515625 28.175781.796875 5.46875 1.164062 16.039062-7.15625 18.796875l-3.777344 1.238281c-8.613281 2.257813-16.792969 5.933594-24.203125 10.871094-1.707031 1.300781-2.394531 3.546875-1.707031 5.578125.691406 2.035156 2.597656 3.402344 4.746094 3.398437zm19.535157-66.300782c0-9.257812 7.5-16.765624 16.761719-16.765624 9.257812-.003907 16.765624 7.5 16.765624 16.757812.003907 9.257812-7.5 16.765625-16.757812 16.769531-9.25-.019531-16.746094-7.511719-16.769531-16.761719zm0 0"/><path d="m290.746094 207.25c0 2.761719 2.242187 5 5 5 2.761718 0 5-2.238281 5-5-.128906-43.292969-28.742188-81.328125-70.300782-93.457031-2.601562-.625-5.234374.910156-5.972656 3.480469-.742187 2.570312.671875 5.265624 3.207032 6.121093 37.289062 10.878907 62.960937 45.011719 63.066406 83.855469zm0 0"/><path d="m208.382812 120.148438h.273438c2.761719.074218 5.058594-2.105469 5.132812-4.867188.070313-2.761719-2.109374-5.058594-4.867187-5.132812-1.792969-.097657-3.597656-.148438-5.410156-.148438-2.761719 0-5 2.242188-5 5 0 2.761719 2.238281 5 5 5 1.636719.015625 3.261719.050781 4.871093.148438zm0 0"/><path d="m191.664062 223.289062c2.464844-.003906 4.558594-1.804687 4.933594-4.242187.300782-1.878906.496094-3.777344.578125-5.675781.066407-2.757813-2.113281-5.042969-4.867187-5.113282-1.332032-.058593-2.628906.425782-3.597656 1.34375-.964844.914063-1.519532 2.183594-1.535157 3.515626-.074219 1.476562-.226562 2.945312-.464843 4.402343-.210938 1.3125.113281 2.660157.902343 3.738281.785157 1.074219 1.96875 1.792969 3.285157 1.992188.253906.035156.511718.046875.765624.039062zm0 0"/><path d="m220.371094 167.617188c-.253906 1.324218-6.105469 32.574218 16.097656 49.601562 18.3125 14.039062 21.863281 32.171875 17.390625 39.867188-.953125 1.546874-.996094 3.488281-.105469 5.074218.890625 1.585938 2.570313 2.5625 4.386719 2.554688 1.816406-.011719 3.488281-1.007813 4.359375-2.601563 7.425781-12.757812 2-36-19.945312-52.832031-17.238282-13.199219-12.417969-39.480469-12.371094-39.742188.472656-2.683593-1.292969-5.25-3.964844-5.773437s-5.273438 1.191406-5.847656 3.851563zm0 0"/></svg>