<svg id="Capa_1" enable-background="new 0 0 512 512" height="512" viewBox="0 0 512 512" width="512" xmlns="http://www.w3.org/2000/svg"><g><path d="m402.138 203.724c3.802-1.643 5.553-6.057 3.91-9.86-20.369-47.14-47.338-94.965-73.992-131.211-21.016-28.583-51.272-62.653-76.056-62.653-42.161 0-99.084 95.207-115.527 124.386-33.424 59.316-69.139 142.793-69.139 199.191 0 103.897 82.841 188.423 184.666 188.423s184.666-84.526 184.666-188.423c0-24.914-7.387-58.296-21.363-96.537-1.422-3.892-5.732-5.894-9.619-4.47-3.891 1.422-5.892 5.729-4.47 9.619 13.379 36.61 20.452 68.212 20.452 91.389 0 95.625-76.112 173.422-169.666 173.422s-169.666-77.797-169.666-173.423c0-44.077 26.38-119.373 67.207-191.827 38.734-68.741 80.867-116.75 102.459-116.75 14.024 0 37.939 21.136 63.972 56.538 26.012 35.375 52.367 82.129 72.307 128.276 1.642 3.802 6.057 5.554 9.859 3.91z"/><path d="m295.647 332.926c-2.225 3.494-1.195 8.13 2.299 10.354 3.493 2.224 8.129 1.195 10.354-2.299l20.963-32.928c6.872-10.793-.9-24.954-13.695-24.954h-30.671c-.861 0-1.453-.839-1.163-1.65l25.553-71.551c3.772-10.562-4.074-21.695-15.289-21.695h-52.494c-6.843 0-12.988 4.33-15.29 10.775l-45.079 126.227c-3.773 10.561 4.074 21.695 15.289 21.695h35.945l-27.457 76.881c-3.132 8.77 3.383 18.016 12.696 18.016h19.109c4.633 0 8.884-2.333 11.373-6.241l40.907-64.254c2.225-3.494 1.195-8.13-2.299-10.354-3.495-2.224-8.13-1.195-10.354 2.299l-40.459 63.551h-16.122l29.256-81.92c2.256-6.317-2.437-12.977-9.145-12.977h-43.45c-.861 0-1.453-.839-1.163-1.65l45.079-126.227c.175-.49.643-.82 1.164-.82h52.494c.861 0 1.453.839 1.163 1.65l-25.553 71.551c-3.773 10.561 4.074 21.695 15.289 21.695h30.671c.181 0 .731 0 1.083.641s.056 1.104-.041 1.257z"/><path d="m212.831 102.658c-2.356 3.407-1.505 8.079 1.901 10.435 3.407 2.355 8.078 1.506 10.435-1.901 4.361-6.304 8.698-12.24 12.892-17.642 6.755-8.702 5.507-21.602-4.48-28.584-8.709-6.098-20.626-4.308-27.127 4.075-12.76 16.451-26.277 36.754-39.09 58.714-5.035 8.629-3.194 19.941 5.785 26.342 9.54 6.809 22.857 3.943 28.749-6.16 1.492-2.558 2.991-5.088 4.496-7.586 2.137-3.549.992-8.157-2.557-10.294-3.551-2.138-8.158-.992-10.294 2.557-1.54 2.558-3.075 5.147-4.602 7.767-1.453 2.49-4.717 3.192-7.079 1.506l-.211-.15c-2.044-1.458-2.617-4.218-1.331-6.421 12.487-21.402 25.623-41.141 37.987-57.081 1.592-2.053 4.523-2.484 6.676-.978l.203.142c2.319 1.625 2.78 4.695 1.027 6.955-4.363 5.617-8.864 11.775-13.38 18.304z"/><path d="m142.954 173.291c-1.573 3.203-3.143 6.458-4.665 9.677-3.83 8.104-1.887 18.432 6.303 24.548 10.081 7.531 24.5 3.924 29.869-7.441 1.428-3.021 2.902-6.083 4.381-9.097 4.242-8.642 1.729-19.045-5.977-24.736-.003-.002-.006-.004-.009-.006-10.758-7.93-24.66-3.616-29.902 7.055zm21 5.017c1.87 1.381 2.468 3.93 1.422 6.061-1.512 3.081-3.019 6.209-4.478 9.298-1.314 2.782-4.826 3.701-7.344 1.82l-.2-.149c-1.851-1.381-2.483-3.888-1.504-5.96 1.489-3.15 3.026-6.337 4.566-9.473 1.323-2.692 4.782-3.628 7.266-1.798z"/></g></svg>