<svg id="Layer_1" height="512" viewBox="0 0 128 128" width="512" xmlns="http://www.w3.org/2000/svg" data-name="Layer 1"><path d="m64 11.472a52.528 52.528 0 1 0 52.529 52.528 52.588 52.588 0 0 0 -52.529-52.528zm0 101.557a49.028 49.028 0 1 1 49.029-49.029 49.084 49.084 0 0 1 -49.029 49.028z"/><path d="m91.933 31.7a1.75 1.75 0 0 0 -.643-1.268 43.258 43.258 0 0 0 -60.854 60.858 1.749 1.749 0 0 0 1.268.644h.089a1.749 1.749 0 0 0 1.237-.513l58.392-58.391a1.749 1.749 0 0 0 .511-1.33zm-59.972 55.843a39.758 39.758 0 0 1 55.581-55.582z"/><path d="m98.051 37.329a1.752 1.752 0 0 0 -1.272-.667 1.789 1.789 0 0 0 -1.342.51l-58.265 58.265a1.749 1.749 0 0 0 .157 2.614 42.823 42.823 0 0 0 26.671 9.212 43.312 43.312 0 0 0 43.263-43.263 42.827 42.827 0 0 0 -9.212-26.671zm-34.051 66.434a39.311 39.311 0 0 1 -22.923-7.281l55.4-55.4a39.308 39.308 0 0 1 7.286 22.918 39.808 39.808 0 0 1 -39.763 39.763z"/><path d="m58.917 42.125a4.542 4.542 0 1 0 4.542-4.542 4.547 4.547 0 0 0 -4.542 4.542zm5.583 0a1.042 1.042 0 1 1 -1.042-1.042 1.043 1.043 0 0 1 1.042 1.042z"/><path d="m90.587 55.625a4.542 4.542 0 1 0 4.542 4.542 4.546 4.546 0 0 0 -4.542-4.542zm0 5.583a1.042 1.042 0 1 1 1.042-1.041 1.042 1.042 0 0 1 -1.042 1.041z"/><path d="m40.292 51a6.375 6.375 0 1 0 6.375 6.375 6.382 6.382 0 0 0 -6.375-6.375zm0 9.25a2.875 2.875 0 1 1 2.875-2.875 2.878 2.878 0 0 1 -2.875 2.875z"/><path d="m89.667 82.851-.782-.277a7.729 7.729 0 0 0 -3.6-8.972l.343-1.666a1.75 1.75 0 0 0 -3.428-.707l-.142.691a6.066 6.066 0 0 0 -10.945 2.95c-.187.071-.358.17-.538.254l-1.075-1.263a1.75 1.75 0 0 0 -2.658 2.277l.951 1.111a8.184 8.184 0 0 0 -1.345 8.48l-.827.62a1.75 1.75 0 0 0 2.1 2.8l.732-.549a8.211 8.211 0 0 0 8.308 1.77l.218.826a1.75 1.75 0 0 0 3.384-.895l-.5-1.879c.141-.14.284-.278.415-.43a7.609 7.609 0 0 0 1.191.094 7.722 7.722 0 0 0 5.626-2.436l1.405.5a1.75 1.75 0 1 0 1.168-3.3zm-8.2 1.737a4.25 4.25 0 0 1 -1.347-.223 1.746 1.746 0 0 0 -2.038.729 4.8 4.8 0 0 1 -1.223 1.318c-.013.01-.029.017-.042.027a4.746 4.746 0 1 1 -3.6-8.532 1.751 1.751 0 0 0 1.417-2 2.566 2.566 0 0 1 5.008-1.092 1.75 1.75 0 0 0 1.686 1.281c.031 0 .1 0 .171-.007a4.25 4.25 0 0 1 -.027 8.5z"/></svg>