<?xml version="1.0" encoding="iso-8859-1"?>
<!-- Generator: Adobe Illustrator 19.0.0, SVG Export Plug-In . SVG Version: 6.00 Build 0)  -->
<svg version="1.1" id="Capa_1" xmlns="http://www.w3.org/2000/svg" xmlns:xlink="http://www.w3.org/1999/xlink" x="0px" y="0px"
	 viewBox="0 0 496 496" style="enable-background:new 0 0 496 496;" xml:space="preserve">
<g>
	<g>
		<g>
			<path d="M157.544,379.104C144.848,371.84,130.4,368,115.752,368H80c-22.056,0-40,17.944-40,40v88h16v-88
				c0-13.232,10.768-24,24-24h35.752c11.864,0,23.568,3.112,33.856,8.992C170.824,405.112,184,427.824,184,452.248V496h16v-43.752
				C200,422.088,183.736,394.064,157.544,379.104z"/>
			<path d="M368,240c-11.92,0-23.408,1.76-34.36,4.824C340.448,228.688,344,210.72,344,192c0-28.92-8.528-56.128-24.088-77
				c0.048-1,0.088-2,0.088-3c0-26.088-11.48-50.672-31.48-67.456c-19.992-16.768-46.424-23.752-72.512-19.136
				c-34.56,6.112-62.688,33.312-70,67.688c-4.352,20.472-1.472,41.464,8.104,59.688c-3.048,4.616-6.104,9.4-8.176,15.208h-13.504
				c-18.488,0-37.144-1.328-55.44-3.936C65.024,162.352,56,151.944,56,139.856V0H0v496h16V16h24v123.856
				c0,20,14.928,37.208,34.728,40.04c19.048,2.728,38.456,4.104,57.704,4.104H158.6l1.256-6.472
				c1.216-6.248,4.296-10.904,8.192-16.808l4.84-7.464l-2.56-4.272c-9.592-15.952-12.584-34.128-8.664-52.56
				c5.96-28.064,28.92-50.272,57.128-55.256c21.432-3.784,43.088,1.912,59.456,15.64C294.608,70.536,304,90.656,304,112
				c0,1.48-0.112,2.936-0.248,4.928l-0.208,3.088l1.92,2.424C319.992,140.808,328,165.512,328,192
				c0,21.976-5.48,42.68-15.752,59.728l-1.112,1.76c-32.456,16.184-57.04,45.688-66.632,81.36
				c-8.144,1.424-16.512,1.512-24.936,0.112c-29.104-4.84-53.104-28.552-58.36-57.664c-2.92-16.144-0.504-32.256,6.984-46.584
				l2.008-3.832l-2.616-4.68c-2.496-4.464-6.672-11.928-7.864-16.312L158.104,200h-25.672c-19.24,0-38.656,1.376-57.704,4.104
				C54.928,206.928,40,224.144,40,244.144V304c0,22.056,17.944,40,40,40h27.84c22.128,0,43.688,6.28,62.36,18.16
				c33.688,21.432,53.8,58.064,53.8,97.992V496h16v-35.848c0-45.424-22.88-87.104-61.2-111.496
				C157.552,335.144,133.016,328,107.84,328H80c-13.232,0-24-10.768-24-24v-59.856c0-12.088,9.024-22.496,20.992-24.2
				c18.296-2.616,36.952-3.944,55.44-3.944h13.992c1.656,3.84,3.784,7.84,5.656,11.24c-7.616,16.496-9.912,34.688-6.616,52.904
				c6.544,36.2,35.272,64.576,71.488,70.6c8.128,1.36,16.248,1.6,24.24,0.768C240.488,356.928,240,362.4,240,368
				c0,70.576,57.424,128,128,128c24.248,0,47.856-6.816,68.272-19.704l-8.544-13.528C409.872,474.04,389.216,480,368,480
				c-61.76,0-112-50.24-112-112s50.24-112,112-112s112,50.24,112,112c0,27.6-10.128,54.12-28.512,74.664l11.92,10.672
				C484.424,429.848,496,399.544,496,368C496,297.424,438.576,240,368,240z"/>
			<path d="M432,336c0-13.232-10.768-24-24-24s-24,10.768-24,24s10.768,24,24,24S432,349.232,432,336z M400,336c0-4.408,3.584-8,8-8
				c4.416,0,8,3.592,8,8c0,4.408-3.584,8-8,8C403.584,344,400,340.408,400,336z"/>
			<path d="M376,464c13.232,0,24-10.768,24-24s-10.768-24-24-24s-24,10.768-24,24S362.768,464,376,464z M376,432
				c4.416,0,8,3.592,8,8c0,4.408-3.584,8-8,8c-4.416,0-8-3.592-8-8C368,435.592,371.584,432,376,432z"/>
			<path d="M368,344c0-17.648-14.352-32-32-32c-6.16,0-12.136,1.816-17.248,5.136C314.6,313.864,309.432,312,304,312
				c-13.232,0-24,10.768-24,24s10.768,24,24,24c1.384,0,2.76-0.12,4.112-0.36C313.624,369.584,324.144,376,336,376
				C353.648,376,368,361.648,368,344z M320.472,347.616c-0.592-2.536-2.376-4.632-4.8-5.608c-0.96-0.392-1.984-0.584-3-0.584
				c-1.52,0-3.032,0.432-4.344,1.28C306.992,343.56,305.536,344,304,344c-4.416,0-8-3.592-8-8c0-4.408,3.584-8,8-8
				c2.904,0,5.504,1.568,6.952,4.192c1.264,2.288,3.56,3.816,6.168,4.096c2.592,0.264,5.168-0.736,6.88-2.712
				c3.128-3.592,7.384-5.576,12-5.576c8.824,0,16,7.176,16,16c0,8.824-7.176,16-16,16C328.536,360,322.16,354.904,320.472,347.616z"
				/>
			<path d="M240,72V56h-8c-17.648,0-32,14.352-32,32v8h16v-8c0-1.424,0.248-2.776,0.6-4.088l8.776,8.776
				c2.088,2.088,4.32,3.952,6.624,5.72V120h16v-12.544c7.552,2.952,15.648,4.544,24,4.544V96c-13.336,0-25.872-5.192-35.312-14.624
				l-8.776-8.776c1.312-0.352,2.664-0.6,4.088-0.6H240z"/>
			<path d="M192,280c0,17.648,14.352,32,32,32h8v-16h-8c-1.424,0-2.776-0.248-4.088-0.6l8.776-8.776
				C238.128,277.192,250.664,272,264,272v-16c-8.352,0-16.448,1.592-24,4.544V240h-16v29.592c-2.304,1.768-4.536,3.632-6.624,5.72
				l-8.776,8.776c-0.352-1.312-0.6-2.664-0.6-4.088v-8h-16V280z"/>
			<path d="M205.656,197.656l12.712-12.712l11.992,9.592C226.384,200.752,224,208.088,224,216v8h16v-8c0-13.232,10.768-24,24-24
				h4.688l13.656,13.656l11.312-11.312L283.312,184l10.344-10.344l-11.312-11.312L268.688,176H264c-8.336,0-16.08,2.576-22.496,6.96
				L205,153.752l-10,12.496l10.8,8.64l-11.456,11.456L205.656,197.656z"/>
			<rect x="376" y="280" width="16" height="16"/>
			<rect x="424" y="392" width="16" height="16"/>
			<rect x="312" y="408" width="16" height="16"/>
		</g>
	</g>
</g>
<g>
</g>
<g>
</g>
<g>
</g>
<g>
</g>
<g>
</g>
<g>
</g>
<g>
</g>
<g>
</g>
<g>
</g>
<g>
</g>
<g>
</g>
<g>
</g>
<g>
</g>
<g>
</g>
<g>
</g>
</svg>
